<svg width="145" height="182.45599975585938" viewBox="0 0 145 182.45599975585938" class="css-1j8o68f"><defs id="SvgjsDefs1001"></defs><g id="SvgjsG1007" featurekey="ECw45b-0" transform="matrix(1.527114895573722,0,0,1.527114895573722,1.1442625031651783,-1.9573095158326232)" fill="#0f1021"><g xmlns="http://www.w3.org/2000/svg"><path d="M49.918,13.18c-21.813,0-39.496,17.684-39.496,39.496S28.105,92.17,49.918,92.17c21.812,0,39.496-17.682,39.496-39.494   S71.73,13.18,49.918,13.18z M49.918,86.223c-16.965,0-30.84-13.188-31.953-29.871c12.242-0.018,36.917-3.217,52.837-26.441   c6.824,5.875,11.148,14.568,11.148,24.279C81.951,71.881,67.609,86.223,49.918,86.223z"></path><circle cx="67.982" cy="63.222" r="4.376"></circle><circle cx="31.965" cy="63.222" r="4.376"></circle><path d="M49.918,72.646c2.789,0,5.048-2.26,5.048-5.049H44.869C44.869,70.387,47.129,72.646,49.918,72.646z"></path><circle cx="85.449" cy="16.582" r="8.752"></circle><path d="M23.303,16.58c0-4.832-3.918-8.75-8.753-8.75c-4.832,0-8.751,3.918-8.751,8.75c0,4.836,3.919,8.754,8.751,8.754   C19.385,25.334,23.303,21.416,23.303,16.58z"></path></g></g><g id="SvgjsG1008" featurekey="6sJQsk-0" transform="matrix(1.6,0,0,1.6,27.94400062561035,150.45600051879882)" fill="#0f1021"><path d="M13.9 20 l-2.24 0 l-1.38 -3.66 l-6 0 l-1.38 3.66 l-2.24 0 l2.32 -6.2 l-1.02 -1.08 l1.78 -0.92 l2.42 -6.46 l2.24 0 z M9.48 14.2 l-2.2 -6 l-2.2 6 l4.4 0 z M30.252000000000002 12.719999999999999 l-1.22 1.06 l0 6.22 l-2.14 0 l-6.12 -10.86 l0 10.86 l-2.14 0 l0 -6.22 l-1.22 -1.06 l1.22 -1.08 l0 -6.3 l2.26 0 l6 10.56 l0 -10.56 l2.14 0 l0 6.3 z M46.403999999999996 5.34 l-5.5 8.26 l0 6.4 l-2.14 0 l0 -6.4 l-5.48 -8.26 l2.44 0 l4.14 6.06 l4.1 -6.06 l2.44 0 z M62.216 20 l-2.24 0 l-1.38 -3.66 l-6 0 l-1.38 3.66 l-2.24 0 l2.32 -6.2 l-1.02 -1.08 l1.78 -0.92 l2.42 -6.46 l2.24 0 z M57.79600000000001 14.2 l-2.2 -6 l-2.2 6 l4.4 0 z"></path></g></svg>